<svg xmlns="http://www.w3.org/2000/svg" viewBox="0 0 1200 720" width="1200" height="720" role="img" aria-label="inady KANBAN board: To Do, Doing, WIP and Done columns with agent tickets">
  <!-- Illustration of the inady KANBAN board UI (not a live screenshot). Replace docs/board.svg with a real screenshot anytime. -->
  <rect width="1200" height="720" rx="14" fill="#09090b"/>
  <g font-family="ui-sans-serif, system-ui, -apple-system, 'Segoe UI', Roboto, Helvetica, Arial, sans-serif">

    <!-- Header bar -->
    <rect x="24" y="24" width="1152" height="52" rx="10" fill="#131316" stroke="#27272a"/>
    <rect x="38" y="37" width="26" height="26" rx="6" fill="#8b5cf6"/>
    <text x="51" y="55" text-anchor="middle" font-size="15" font-weight="700" fill="#ffffff">K</text>
    <text x="76" y="56" font-size="17" font-weight="600" fill="#fafafa">inady KANBAN</text>
    <!-- running-agents pill -->
    <rect x="980" y="37" width="112" height="26" rx="13" fill="#13251b"/>
    <circle cx="998" cy="50" r="4" fill="#4ade80"/>
    <text x="1009" y="54" font-size="11.5" font-weight="500" fill="#4ade80">2 running</text>
    <!-- menu -->
    <rect x="1146" y="43" width="20" height="2" rx="1" fill="#a1a1aa"/>
    <rect x="1146" y="49" width="20" height="2" rx="1" fill="#a1a1aa"/>
    <rect x="1146" y="55" width="20" height="2" rx="1" fill="#a1a1aa"/>

    <!-- ============ COLUMN 1 : TO DO ============ -->
    <rect x="24" y="94" width="277" height="602" rx="10" fill="#0d0d11" stroke="#27272a"/>
    <rect x="38" y="106" width="62" height="22" rx="6" fill="#1c1c20"/>
    <text x="69" y="121" text-anchor="middle" font-size="11" font-weight="600" letter-spacing="1" fill="#a1a1aa">TO DO</text>
    <text x="287" y="122" text-anchor="end" font-size="12" font-weight="600" fill="#71717a">3</text>

    <!-- card -->
    <rect x="36" y="148" width="253" height="76" rx="8" fill="#161619" stroke="#27272a"/>
    <circle cx="49" cy="167" r="1.4" fill="#52525b"/><circle cx="54" cy="167" r="1.4" fill="#52525b"/>
    <circle cx="49" cy="173" r="1.4" fill="#52525b"/><circle cx="54" cy="173" r="1.4" fill="#52525b"/>
    <circle cx="49" cy="179" r="1.4" fill="#52525b"/><circle cx="54" cy="179" r="1.4" fill="#52525b"/>
    <text x="66" y="173" font-size="13" font-weight="500" fill="#fafafa">Fix login redirect loop</text>
    <text x="66" y="190" font-size="10.5" font-family="ui-monospace, SFMono-Regular, Menlo, monospace" fill="#a1a1aa">~/code/web-app</text>
    <rect x="66" y="200" width="34" height="16" rx="8" fill="#2a1a1c"/>
    <text x="83" y="211" text-anchor="middle" font-size="10" font-weight="500" fill="#f87171">bug</text>

    <rect x="36" y="236" width="253" height="76" rx="8" fill="#161619" stroke="#27272a"/>
    <circle cx="49" cy="255" r="1.4" fill="#52525b"/><circle cx="54" cy="255" r="1.4" fill="#52525b"/>
    <circle cx="49" cy="261" r="1.4" fill="#52525b"/><circle cx="54" cy="261" r="1.4" fill="#52525b"/>
    <circle cx="49" cy="267" r="1.4" fill="#52525b"/><circle cx="54" cy="267" r="1.4" fill="#52525b"/>
    <text x="66" y="261" font-size="13" font-weight="500" fill="#fafafa">Add CSV export to reports</text>
    <text x="66" y="278" font-size="10.5" font-family="ui-monospace, SFMono-Regular, Menlo, monospace" fill="#a1a1aa">~/code/web-app</text>
    <rect x="66" y="288" width="58" height="16" rx="8" fill="#211c2e"/>
    <text x="95" y="299" text-anchor="middle" font-size="10" font-weight="500" fill="#a78bfa">feature</text>

    <rect x="36" y="324" width="253" height="58" rx="8" fill="#161619" stroke="#27272a"/>
    <circle cx="49" cy="347" r="1.4" fill="#52525b"/><circle cx="54" cy="347" r="1.4" fill="#52525b"/>
    <circle cx="49" cy="353" r="1.4" fill="#52525b"/><circle cx="54" cy="353" r="1.4" fill="#52525b"/>
    <circle cx="49" cy="359" r="1.4" fill="#52525b"/><circle cx="54" cy="359" r="1.4" fill="#52525b"/>
    <text x="66" y="349" font-size="13" font-weight="500" fill="#fafafa">Upgrade to Next.js 15</text>
    <text x="66" y="366" font-size="10.5" font-family="ui-monospace, SFMono-Regular, Menlo, monospace" fill="#a1a1aa">~/code/web-app</text>

    <!-- ============ COLUMN 2 : DOING ============ -->
    <rect x="315" y="94" width="277" height="602" rx="10" fill="#0d0d11" stroke="#27272a"/>
    <rect x="329" y="106" width="62" height="22" rx="6" fill="#1b162e"/>
    <text x="360" y="121" text-anchor="middle" font-size="11" font-weight="600" letter-spacing="1" fill="#a78bfa">DOING</text>
    <text x="578" y="122" text-anchor="end" font-size="12" font-weight="600" fill="#71717a">2</text>

    <!-- working (busy) -->
    <rect x="327" y="148" width="253" height="76" rx="8" fill="#161619" stroke="#27272a"/>
    <circle cx="340" cy="167" r="1.4" fill="#52525b"/><circle cx="345" cy="167" r="1.4" fill="#52525b"/>
    <circle cx="340" cy="173" r="1.4" fill="#52525b"/><circle cx="345" cy="173" r="1.4" fill="#52525b"/>
    <circle cx="340" cy="179" r="1.4" fill="#52525b"/><circle cx="345" cy="179" r="1.4" fill="#52525b"/>
    <text x="357" y="173" font-size="13" font-weight="500" fill="#fafafa">Refactor auth middleware</text>
    <text x="357" y="190" font-size="10.5" font-family="ui-monospace, SFMono-Regular, Menlo, monospace" fill="#a1a1aa">~/code/api</text>
    <rect x="496" y="200" width="68" height="16" rx="8" fill="#13251b"/>
    <path d="M 508 208 m -4 0 a 4 4 0 1 1 8 0" fill="none" stroke="#4ade80" stroke-width="1.6" stroke-linecap="round"/>
    <text x="517" y="211" font-size="10" font-weight="500" fill="#4ade80">working</text>

    <!-- awaiting (your turn) -->
    <rect x="327" y="236" width="253" height="76" rx="8" fill="#161619" stroke="#27272a"/>
    <circle cx="340" cy="255" r="1.4" fill="#52525b"/><circle cx="345" cy="255" r="1.4" fill="#52525b"/>
    <circle cx="340" cy="261" r="1.4" fill="#52525b"/><circle cx="345" cy="261" r="1.4" fill="#52525b"/>
    <circle cx="340" cy="267" r="1.4" fill="#52525b"/><circle cx="345" cy="267" r="1.4" fill="#52525b"/>
    <text x="357" y="261" font-size="13" font-weight="500" fill="#fafafa">Write integration tests</text>
    <text x="357" y="278" font-size="10.5" font-family="ui-monospace, SFMono-Regular, Menlo, monospace" fill="#a1a1aa">~/code/api</text>
    <rect x="487" y="288" width="77" height="16" rx="8" fill="#2a2410" stroke="#fbbf24" stroke-opacity="0.5"/>
    <circle cx="499" cy="296" r="3.5" fill="#fbbf24"/>
    <text x="508" y="299" font-size="10" font-weight="500" fill="#fbbf24">your turn</text>

    <!-- ============ COLUMN 3 : WIP ============ -->
    <rect x="606" y="94" width="277" height="602" rx="10" fill="#0d0d11" stroke="#27272a"/>
    <rect x="620" y="106" width="50" height="22" rx="6" fill="#2a2510"/>
    <text x="645" y="121" text-anchor="middle" font-size="11" font-weight="600" letter-spacing="1" fill="#fbbf24">WIP</text>
    <text x="869" y="122" text-anchor="end" font-size="12" font-weight="600" fill="#71717a">1</text>

    <rect x="618" y="148" width="253" height="76" rx="8" fill="#161619" stroke="#27272a"/>
    <circle cx="631" cy="167" r="1.4" fill="#52525b"/><circle cx="636" cy="167" r="1.4" fill="#52525b"/>
    <circle cx="631" cy="173" r="1.4" fill="#52525b"/><circle cx="636" cy="173" r="1.4" fill="#52525b"/>
    <circle cx="631" cy="179" r="1.4" fill="#52525b"/><circle cx="636" cy="179" r="1.4" fill="#52525b"/>
    <text x="648" y="173" font-size="13" font-weight="500" fill="#fafafa">Investigate flaky CI</text>
    <text x="648" y="190" font-size="10.5" font-family="ui-monospace, SFMono-Regular, Menlo, monospace" fill="#a1a1aa">~/code/infra</text>
    <rect x="648" y="200" width="42" height="16" rx="8" fill="#2a2510"/>
    <text x="669" y="211" text-anchor="middle" font-size="10" font-weight="500" fill="#fbbf24">infra</text>

    <!-- ============ COLUMN 4 : DONE ============ -->
    <rect x="897" y="94" width="277" height="602" rx="10" fill="#0d0d11" stroke="#27272a"/>
    <rect x="911" y="106" width="56" height="22" rx="6" fill="#102a1c"/>
    <text x="939" y="121" text-anchor="middle" font-size="11" font-weight="600" letter-spacing="1" fill="#4ade80">DONE</text>
    <text x="1160" y="122" text-anchor="end" font-size="12" font-weight="600" fill="#71717a">2</text>

    <rect x="909" y="148" width="253" height="76" rx="8" fill="#161619" stroke="#27272a"/>
    <circle cx="922" cy="167" r="1.4" fill="#52525b"/><circle cx="927" cy="167" r="1.4" fill="#52525b"/>
    <circle cx="922" cy="173" r="1.4" fill="#52525b"/><circle cx="927" cy="173" r="1.4" fill="#52525b"/>
    <circle cx="922" cy="179" r="1.4" fill="#52525b"/><circle cx="927" cy="179" r="1.4" fill="#52525b"/>
    <text x="939" y="173" font-size="13" font-weight="500" fill="#fafafa">Add dark-mode toggle</text>
    <text x="939" y="190" font-size="10.5" font-family="ui-monospace, SFMono-Regular, Menlo, monospace" fill="#a1a1aa">~/code/web-app</text>
    <text x="1150" y="212" text-anchor="end" font-size="10" font-weight="500" fill="#71717a">Done · Jun 13</text>

    <rect x="909" y="236" width="253" height="76" rx="8" fill="#161619" stroke="#27272a"/>
    <circle cx="922" cy="255" r="1.4" fill="#52525b"/><circle cx="927" cy="255" r="1.4" fill="#52525b"/>
    <circle cx="922" cy="261" r="1.4" fill="#52525b"/><circle cx="927" cy="261" r="1.4" fill="#52525b"/>
    <circle cx="922" cy="267" r="1.4" fill="#52525b"/><circle cx="927" cy="267" r="1.4" fill="#52525b"/>
    <text x="939" y="261" font-size="13" font-weight="500" fill="#fafafa">Migrate store to SQLite</text>
    <text x="939" y="278" font-size="10.5" font-family="ui-monospace, SFMono-Regular, Menlo, monospace" fill="#a1a1aa">~/code/api</text>
    <text x="1150" y="300" text-anchor="end" font-size="10" font-weight="500" fill="#71717a">Done · Jun 12</text>

  </g>
</svg>
